<svg id="Layer_1" data-name="Layer 1" xmlns="http://www.w3.org/2000/svg" viewBox="0 0 32 40"><defs><style>.cls-1{fill:#fff;}</style></defs><path class="cls-1" d="M11,44a2.88,2.88,0,0,1-2.1-.9A2.88,2.88,0,0,1,8,41V15a2.88,2.88,0,0,1,.9-2.1A2.88,2.88,0,0,1,11,12h5.5v-.5a7,7,0,0,1,2.2-5.3A7,7,0,0,1,24,4a7,7,0,0,1,5.3,2.2,7.32,7.32,0,0,1,2.2,5.3V12H37a3.08,3.08,0,0,1,3,3V41a3.08,3.08,0,0,1-3,3Zm0-3H37V15H31.5v4.5a1.56,1.56,0,0,1-2.6,1.1,1.37,1.37,0,0,1-.4-1.1V15h-9v4.5a1.56,1.56,0,0,1-2.6,1.1,1.37,1.37,0,0,1-.4-1.1V15H11Zm8.5-29h9v-.5a4.22,4.22,0,0,0-1.3-3.2A4.22,4.22,0,0,0,24,7a4.22,4.22,0,0,0-3.2,1.3,4.22,4.22,0,0,0-1.3,3.2ZM11,41v0Z" transform="translate(-8 -4)"/></svg>