<?xml version="1.0" encoding="utf-8"?>
<!-- Generator: Adobe Illustrator 25.4.1, SVG Export Plug-In . SVG Version: 6.00 Build 0)  -->
<svg version="1.1" id="Layer_1" xmlns="http://www.w3.org/2000/svg" xmlns:xlink="http://www.w3.org/1999/xlink" x="0px" y="0px"
	 viewBox="0 0 32 40" style="enable-background:new 0 0 32 40;" xml:space="preserve">
<style type="text/css">
	.st0{fill:#528FA6;}
</style>
<path class="st0" d="M3,40c-0.8,0-1.5-0.3-2.1-0.9C0.3,38.5,0,37.8,0,37V11c0-0.8,0.3-1.5,0.9-2.1S2.2,8,3,8h5.5V7.5
	c0-2.1,0.7-3.9,2.2-5.3C12.1,0.7,13.9,0,16,0s3.9,0.7,5.3,2.2c1.4,1.4,2.2,3.2,2.2,5.3V8H29c0.8,0,1.5,0.3,2.1,0.9S32,10.2,32,11v26
	c0,0.8-0.3,1.5-0.9,2.1S29.8,40,29,40H3z M3,37h26V11h-5.5v4.5c0,0.4-0.1,0.8-0.4,1.1C22.8,16.9,22.4,17,22,17s-0.8-0.1-1.1-0.4
	c-0.3-0.3-0.4-0.6-0.4-1.1V11h-9v4.5c0,0.4-0.1,0.8-0.4,1.1C10.8,16.9,10.4,17,10,17s-0.8-0.1-1.1-0.4S8.5,16,8.5,15.5V11H3V37z
	 M11.5,8h9V7.5c0-1.3-0.4-2.3-1.3-3.2S17.3,3,16,3s-2.3,0.4-3.2,1.3s-1.3,1.9-1.3,3.2V8z M3,37L3,37z"/>
</svg>
