<?xml version="1.0" encoding="UTF-8"?><svg id="Layer_1" xmlns="http://www.w3.org/2000/svg" viewBox="0 0 32 40"><defs><style>.cls-1{fill:#b16c5c;}</style></defs><path class="cls-1" d="M3,40c-.8,0-1.5-.3-2.1-.9-.6-.6-.9-1.3-.9-2.1V11c0-.8,.3-1.5,.9-2.1,.6-.6,1.3-.9,2.1-.9h5.5v-.5c0-2.1,.7-3.9,2.2-5.3,1.4-1.5,3.2-2.2,5.3-2.2s3.9,.7,5.3,2.2c1.4,1.4,2.2,3.2,2.2,5.3v.5h5.5c.8,0,1.5,.3,2.1,.9,.6,.6,.9,1.3,.9,2.1v26c0,.8-.3,1.5-.9,2.1-.6,.6-1.3,.9-2.1,.9H3Zm0-3H29V11h-5.5v4.5c0,.4-.1,.8-.4,1.1-.3,.3-.7,.4-1.1,.4s-.8-.1-1.1-.4c-.3-.3-.4-.6-.4-1.1v-4.5H11.5v4.5c0,.4-.1,.8-.4,1.1-.3,.3-.7,.4-1.1,.4s-.8-.1-1.1-.4c-.3-.3-.4-.6-.4-1.1v-4.5H3v26ZM11.5,8h9v-.5c0-1.3-.4-2.3-1.3-3.2-.9-.9-1.9-1.3-3.2-1.3s-2.3,.4-3.2,1.3c-.9,.9-1.3,1.9-1.3,3.2v.5ZM3,37v0Z"/></svg>